<svg width="16" height="16" viewBox="0 0 16 16" fill="none" xmlns="http://www.w3.org/2000/svg">
<path d="M8.25819 4.35542C8.16614 4.77013 8.0763 5.177 7.98799 5.57692C7.92924 5.60314 7.89136 5.57281 7.85161 5.56063C7.50674 5.45496 7.15891 5.37801 6.79788 5.46928C6.3787 5.57527 6.11518 5.84326 5.99366 6.25549C5.95099 6.40021 5.92808 6.54779 5.91299 6.69791C5.90404 6.7869 5.93579 6.80654 6.0168 6.80504C6.40977 6.79777 6.75929 6.92118 7.06417 7.16838C7.24903 7.31828 7.36554 7.52475 7.50288 7.71336C7.62826 7.88553 7.74689 8.06262 7.88134 8.25603C7.74551 8.2323 7.63537 8.18595 7.51756 8.17389C7.44097 8.16605 7.36492 8.15894 7.28805 8.15897C6.87011 8.15909 6.45217 8.15899 6.03422 8.15929C5.90056 8.15939 5.90031 8.15984 5.90029 8.29305C5.90008 9.59369 5.89997 10.8943 5.89979 12.195C5.89979 12.2318 5.89782 12.2686 5.89959 12.3053C5.90263 12.3684 5.87641 12.395 5.81119 12.3948C5.31301 12.3935 4.81481 12.3928 4.31664 12.396C4.21536 12.3966 4.22507 12.3342 4.22505 12.2696C4.22483 11.3535 4.22433 10.4374 4.22407 9.52124C4.22395 9.11332 4.22458 8.70541 4.22405 8.29749C4.22389 8.17502 4.20866 8.15997 4.0839 8.15967C3.76293 8.15889 3.4419 8.15655 3.12099 8.16118C3.02844 8.16252 2.99907 8.13191 3.00002 8.04028C3.00392 7.66584 3.00365 7.29132 3.00004 6.91687C2.99919 6.82894 3.02946 6.80063 3.11647 6.80161C3.45078 6.80538 3.78518 6.80099 4.1195 6.8045C4.20702 6.80542 4.24188 6.78069 4.24803 6.68688C4.27745 6.23821 4.34727 5.79799 4.55149 5.38937C4.91502 4.66196 5.5118 4.24508 6.29457 4.07208C6.89393 3.93962 7.48227 4.00088 8.06564 4.16506C8.09778 4.17411 8.12965 4.18623 8.16247 4.19039C8.26129 4.20293 8.29741 4.25178 8.25819 4.35542Z" fill="#FFD800"/>
<path d="M7.18597 7.04218C7.08931 6.95466 6.98137 6.8952 6.87285 6.83372C6.90388 6.78767 6.9405 6.8037 6.97048 6.80361C7.40517 6.80239 7.83993 6.79838 8.27456 6.80373C8.77938 6.80995 9.17623 7.02941 9.45777 7.44527C9.62254 7.68864 9.76931 7.94418 9.92486 8.19382C9.94937 8.23317 9.9775 8.27026 10.0075 8.31357C10.0544 8.28755 10.0755 8.24474 10.1019 8.2087C10.3231 7.90671 10.53 7.59394 10.7712 7.30711C11.032 6.99699 11.369 6.8232 11.7726 6.80791C12.1633 6.79311 12.5549 6.80377 12.9462 6.80367C12.9623 6.80366 12.9785 6.80795 12.9922 6.80989C13.0137 6.84949 12.9857 6.87037 12.9685 6.89286C12.4294 7.59988 11.8899 8.30656 11.3504 9.01335C11.2308 9.1701 11.1135 9.32873 10.9908 9.48301C10.9418 9.54462 10.9367 9.59361 10.9835 9.66054C11.3919 10.2439 11.7978 10.829 12.2035 11.4141C12.415 11.719 12.6248 12.0251 12.835 12.3309C12.8439 12.3439 12.849 12.3597 12.8555 12.3734C12.8293 12.4059 12.797 12.3941 12.7689 12.3942C12.4312 12.3948 12.0933 12.3877 11.7558 12.3959C11.2194 12.409 10.8157 12.181 10.5244 11.7404C10.3696 11.5062 10.2205 11.2681 10.0684 11.0321C10.0289 10.9708 9.99529 10.9049 9.93755 10.8546C9.88394 10.8788 9.85905 10.9274 9.82801 10.9696C9.62601 11.2442 9.43554 11.5271 9.22417 11.7951C8.90966 12.1937 8.50558 12.401 7.99361 12.3951C7.65259 12.3911 7.31148 12.3954 6.97042 12.3954C6.93779 12.3954 6.90346 12.4019 6.86877 12.3781C6.88337 12.3185 6.92839 12.2769 6.96367 12.2312C7.62713 11.3709 8.291 10.5109 8.95753 9.65305C9.01189 9.58308 9.0131 9.53737 8.96024 9.4632C8.4791 8.78815 8.00272 8.1097 7.5256 7.43179C7.42719 7.29195 7.32439 7.15638 7.18597 7.04218Z" fill="#FFD800"/>
</svg>
